<?xml version="1.0" standalone="no"?>
<!DOCTYPE svg PUBLIC "-//W3C//DTD SVG 20010904//EN"
 "http://www.w3.org/TR/2001/REC-SVG-20010904/DTD/svg10.dtd">
<svg version="1.0" xmlns="http://www.w3.org/2000/svg"
 width="266.000000pt" height="266.000000pt" viewBox="0 0 266.000000 266.000000"
 preserveAspectRatio="xMidYMid meet">
<metadata>
Created by potrace 1.14, written by Peter Selinger 2001-2017
</metadata>
<g transform="translate(0.000000,266.000000) scale(0.100000,-0.100000)"
fill="#000000" stroke="none">
<path d="M1451 2243 c-7 -16 -11 -29 -9 -29 1 -1 -6 -11 -16 -23 -11 -12 -16
-21 -12 -21 8 0 -21 -59 -42 -82 -8 -10 -12 -18 -8 -18 5 0 -28 -70 -112 -237
-16 -33 -13 -31 -142 -49 -19 -3 -73 -11 -120 -19 -47 -7 -127 -19 -177 -26
-51 -6 -93 -15 -93 -18 0 -7 358 -355 371 -359 4 -2 -13 -33 -39 -70 -26 -37
-78 -114 -117 -172 -38 -58 -72 -107 -75 -110 -3 -3 -23 -32 -45 -65 -22 -33
-43 -64 -47 -70 -18 -22 -58 -82 -74 -110 -9 -16 -20 -32 -24 -35 -13 -10
-233 -340 -229 -344 4 -4 257 163 483 319 48 33 111 75 141 93 30 18 55 37 55
42 0 6 5 10 11 10 12 0 222 141 227 153 2 4 8 7 13 7 5 0 31 15 57 34 l47 35
215 -111 c118 -60 219 -114 224 -119 6 -5 15 -9 22 -9 13 0 12 32 -6 105 -7
28 -13 61 -15 75 -1 14 -6 45 -11 70 -4 25 -8 52 -9 60 -1 8 -4 29 -8 45 -4
17 -9 44 -12 60 -7 42 -15 86 -18 94 -1 4 83 91 187 194 104 103 187 187 185
188 -2 0 -13 2 -24 5 -11 2 -38 6 -60 9 -91 12 -123 16 -175 25 -30 5 -77 12
-105 15 -27 3 -59 7 -70 9 -11 3 -34 5 -51 5 -31 1 -34 6 -150 236 -66 129
-122 235 -125 235 -3 0 -11 -12 -18 -27z"/>
</g>
</svg>
